<svg xmlns="http://www.w3.org/2000/svg" width="760" height="250" viewBox="0 0 760 250" role="img"><title>Storage of the Starter set and of every pack against the 50 GB limit</title><rect width="760" height="250" rx="8" fill="#1a1a19"/><text x="24.0" y="34.0" fill="#ffffff" font-size="17" font-weight="700" text-anchor="start" font-family="-apple-system, BlinkMacSystemFont, 'Segoe UI', Helvetica, Arial, sans-serif">Storage on the phone</text><text x="24.0" y="56.0" fill="#c3c2b7" font-size="13" font-weight="400" text-anchor="start" font-family="-apple-system, BlinkMacSystemFont, 'Segoe UI', Helvetica, Arial, sans-serif">In GB. The bounty allows 50 GB for the app and all its data.</text><rect x="24" y="74" width="12" height="12" rx="2" fill="#3987e5"/><text x="42.0" y="84.0" fill="#c3c2b7" font-size="12" font-weight="400" text-anchor="start" font-family="-apple-system, BlinkMacSystemFont, 'Segoe UI', Helvetica, Arial, sans-serif">Wikipedia</text><rect x="126.1" y="74" width="12" height="12" rx="2" fill="#d95926"/><text x="144.1" y="84.0" fill="#c3c2b7" font-size="12" font-weight="400" text-anchor="start" font-family="-apple-system, BlinkMacSystemFont, 'Segoe UI', Helvetica, Arial, sans-serif">AI models</text><rect x="228.2" y="74" width="12" height="12" rx="2" fill="#199e70"/><text x="246.2" y="84.0" fill="#c3c2b7" font-size="12" font-weight="400" text-anchor="start" font-family="-apple-system, BlinkMacSystemFont, 'Segoe UI', Helvetica, Arial, sans-serif">Wikidata facts</text><rect x="364.8" y="74" width="12" height="12" rx="2" fill="#c98500"/><text x="382.8" y="84.0" fill="#c3c2b7" font-size="12" font-weight="400" text-anchor="start" font-family="-apple-system, BlinkMacSystemFont, 'Segoe UI', Helvetica, Arial, sans-serif">arXiv and Stack Exchange</text><rect x="570.4000000000001" y="74" width="12" height="12" rx="2" fill="#d55181"/><text x="588.4" y="84.0" fill="#c3c2b7" font-size="12" font-weight="400" text-anchor="start" font-family="-apple-system, BlinkMacSystemFont, 'Segoe UI', Helvetica, Arial, sans-serif">Reference shelf</text><line x1="140.0" y1="124" x2="140.0" y2="214" stroke="#2f2f2d" stroke-width="1"/><text x="140.0" y="230.0" fill="#9a998f" font-size="12" font-weight="400" text-anchor="middle" font-family="-apple-system, BlinkMacSystemFont, 'Segoe UI', Helvetica, Arial, sans-serif">0</text><line x1="250.0" y1="124" x2="250.0" y2="214" stroke="#2f2f2d" stroke-width="1"/><text x="250.0" y="230.0" fill="#9a998f" font-size="12" font-weight="400" text-anchor="middle" font-family="-apple-system, BlinkMacSystemFont, 'Segoe UI', Helvetica, Arial, sans-serif">10</text><line x1="360.0" y1="124" x2="360.0" y2="214" stroke="#2f2f2d" stroke-width="1"/><text x="360.0" y="230.0" fill="#9a998f" font-size="12" font-weight="400" text-anchor="middle" font-family="-apple-system, BlinkMacSystemFont, 'Segoe UI', Helvetica, Arial, sans-serif">20</text><line x1="470.0" y1="124" x2="470.0" y2="214" stroke="#2f2f2d" stroke-width="1"/><text x="470.0" y="230.0" fill="#9a998f" font-size="12" font-weight="400" text-anchor="middle" font-family="-apple-system, BlinkMacSystemFont, 'Segoe UI', Helvetica, Arial, sans-serif">30</text><line x1="580.0" y1="124" x2="580.0" y2="214" stroke="#2f2f2d" stroke-width="1"/><text x="580.0" y="230.0" fill="#9a998f" font-size="12" font-weight="400" text-anchor="middle" font-family="-apple-system, BlinkMacSystemFont, 'Segoe UI', Helvetica, Arial, sans-serif">40</text><line x1="690.0" y1="124" x2="690.0" y2="214" stroke="#2f2f2d" stroke-width="1"/><text x="690.0" y="230.0" fill="#9a998f" font-size="12" font-weight="400" text-anchor="middle" font-family="-apple-system, BlinkMacSystemFont, 'Segoe UI', Helvetica, Arial, sans-serif">50</text><text x="24.0" y="148.0" fill="#ffffff" font-size="13" font-weight="600" text-anchor="start" font-family="-apple-system, BlinkMacSystemFont, 'Segoe UI', Helvetica, Arial, sans-serif">Starter set</text><rect x="140" y="132" width="550" height="24" rx="4" fill="#262624"/><path d="M140.0,132.0 H176.9 Q176.9,132.0 176.9,132.0 V156.0 Q176.9,156.0 176.9,156.0 H140.0 Z" fill="#3987e5"/><text x="158.5" y="148.0" fill="#0b0b0b" font-size="12" font-weight="600" text-anchor="middle" font-family="-apple-system, BlinkMacSystemFont, 'Segoe UI', Helvetica, Arial, sans-serif">3.5</text><path d="M178.9,132.0 H227.8 Q227.8,132.0 227.8,132.0 V156.0 Q227.8,156.0 227.8,156.0 H178.9 Z" fill="#d95926"/><text x="203.3" y="148.0" fill="#0b0b0b" font-size="12" font-weight="600" text-anchor="middle" font-family="-apple-system, BlinkMacSystemFont, 'Segoe UI', Helvetica, Arial, sans-serif">4.6</text><path d="M229.8,132.0 H260.4 Q264.4,132.0 264.4,136.0 V152.0 Q264.4,156.0 260.4,156.0 H229.8 Z" fill="#199e70"/><text x="247.1" y="148.0" fill="#0b0b0b" font-size="12" font-weight="600" text-anchor="middle" font-family="-apple-system, BlinkMacSystemFont, 'Segoe UI', Helvetica, Arial, sans-serif">3.2</text><text x="272.4" y="148.0" fill="#ffffff" font-size="13" font-weight="700" text-anchor="start" font-family="-apple-system, BlinkMacSystemFont, 'Segoe UI', Helvetica, Arial, sans-serif">11.3 GB</text><text x="24.0" y="194.0" fill="#ffffff" font-size="13" font-weight="600" text-anchor="start" font-family="-apple-system, BlinkMacSystemFont, 'Segoe UI', Helvetica, Arial, sans-serif">Every pack</text><rect x="140" y="178" width="550" height="24" rx="4" fill="#262624"/><path d="M140.0,178.0 H349.3 Q349.3,178.0 349.3,178.0 V202.0 Q349.3,202.0 349.3,202.0 H140.0 Z" fill="#3987e5"/><text x="244.7" y="194.0" fill="#0b0b0b" font-size="12" font-weight="600" text-anchor="middle" font-family="-apple-system, BlinkMacSystemFont, 'Segoe UI', Helvetica, Arial, sans-serif">19.2</text><path d="M351.3,178.0 H407.8 Q407.8,178.0 407.8,178.0 V202.0 Q407.8,202.0 407.8,202.0 H351.3 Z" fill="#d95926"/><text x="379.6" y="194.0" fill="#0b0b0b" font-size="12" font-weight="600" text-anchor="middle" font-family="-apple-system, BlinkMacSystemFont, 'Segoe UI', Helvetica, Arial, sans-serif">5.3</text><path d="M409.8,178.0 H442.5 Q442.5,178.0 442.5,178.0 V202.0 Q442.5,202.0 442.5,202.0 H409.8 Z" fill="#199e70"/><text x="426.2" y="194.0" fill="#0b0b0b" font-size="12" font-weight="600" text-anchor="middle" font-family="-apple-system, BlinkMacSystemFont, 'Segoe UI', Helvetica, Arial, sans-serif">3.2</text><path d="M444.5,178.0 H506.3 Q506.3,178.0 506.3,178.0 V202.0 Q506.3,202.0 506.3,202.0 H444.5 Z" fill="#c98500"/><text x="475.4" y="194.0" fill="#0b0b0b" font-size="12" font-weight="600" text-anchor="middle" font-family="-apple-system, BlinkMacSystemFont, 'Segoe UI', Helvetica, Arial, sans-serif">5.8</text><path d="M508.3,178.0 H526.3 Q530.3,178.0 530.3,182.0 V198.0 Q530.3,202.0 526.3,202.0 H508.3 Z" fill="#d55181"/><text x="519.3" y="194.0" fill="#0b0b0b" font-size="11" font-weight="600" text-anchor="middle" font-family="-apple-system, BlinkMacSystemFont, 'Segoe UI', Helvetica, Arial, sans-serif">2.0</text><text x="538.3" y="194.0" fill="#ffffff" font-size="13" font-weight="700" text-anchor="start" font-family="-apple-system, BlinkMacSystemFont, 'Segoe UI', Helvetica, Arial, sans-serif">35.5 GB</text><line x1="690.0" y1="118" x2="690.0" y2="214" stroke="#c3c2b7" stroke-width="1.5" stroke-dasharray="4 3"/><text x="690.0" y="112.0" fill="#c3c2b7" font-size="12" font-weight="600" text-anchor="end" font-family="-apple-system, BlinkMacSystemFont, 'Segoe UI', Helvetica, Arial, sans-serif">50 GB limit</text></svg>
